<svg width="315" height="68" viewBox="0 0 315 68" fill="none" xmlns="http://www.w3.org/2000/svg">
<path d="M11.544 28.736H44.952V39.008H11.544V28.736ZM12.504 57.536H50.424V68H0.0240004V0.799995H49.08V11.264H12.504V57.536ZM66.2565 68V0.799995H78.7365V57.44H113.873V68H66.2565ZM125.645 68V0.799995H138.125V68H125.645ZM150.061 68L178.381 29.024V38.432L151.405 0.799995H165.517L185.581 28.64L179.821 28.736L199.693 0.799995H213.229L186.445 37.76V28.736L214.958 68H200.557L179.437 38.432H185.101L164.269 68H150.061ZM224.454 68V0.799995H236.934V68H224.454ZM257.03 68V0.799995H284.678C290.63 0.799995 295.718 1.76 299.942 3.68C304.23 5.6 307.526 8.352 309.83 11.936C312.134 15.52 313.286 19.776 313.286 24.704C313.286 29.632 312.134 33.888 309.83 37.472C307.526 40.992 304.23 43.712 299.942 45.632C295.718 47.488 290.63 48.416 284.678 48.416H263.942L269.51 42.752V68H257.03ZM300.998 68L284.006 43.616H297.35L314.438 68H300.998ZM269.51 44.096L263.942 38.144H284.102C289.606 38.144 293.734 36.96 296.486 34.592C299.302 32.224 300.71 28.928 300.71 24.704C300.71 20.416 299.302 17.12 296.486 14.816C293.734 12.512 289.606 11.36 284.102 11.36H263.942L269.51 5.216V44.096Z" fill="white"/>
</svg>
